<svg xmlns="http://www.w3.org/2000/svg" viewBox="0 0 512 512">
  <rect width="512" height="512" fill="#000000"/>
  <g transform="matrix(0.10446 0 0 -0.10446 83.803 328.963)"><path d="M1344 368Q1344 298 1305.5 226.5Q1267 155 1194.5 95.0Q1122 35 1018.0 -1.5Q914 -38 783 -38Q566 -38 408.5 55.5Q251 149 165.5 313.5Q80 478 80 692Q80 853 130.5 988.5Q181 1124 272.5 1224.0Q364 1324 487.0 1379.5Q610 1435 755 1435Q855 1435 917.5 1415.5Q980 1396 1016.5 1376.0Q1053 1356 1074 1356Q1100 1356 1112.5 1373.5Q1125 1391 1138.5 1408.0Q1152 1425 1178 1425Q1197 1425 1209.0 1413.5Q1221 1402 1229 1374L1334 1030Q1342 1007 1330.0 988.5Q1318 970 1294 965Q1270 960 1250.5 969.5Q1231 979 1220 1004Q1166 1123 1101.0 1193.5Q1036 1264 960.0 1294.5Q884 1325 795 1325Q706 1325 632.0 1284.5Q558 1244 504.5 1169.0Q451 1094 421.5 989.5Q392 885 392 755Q392 554 454.5 415.0Q517 276 625.0 204.5Q733 133 872 133Q1005 133 1103.0 195.5Q1201 258 1256 372Q1269 396 1283.0 404.0Q1297 412 1314 409Q1330 407 1337.0 396.5Q1344 386 1344 368ZM2400 376 2296 344 2673 1307Q2693 1359 2720.0 1379.5Q2747 1400 2794 1400H3081Q3113 1400 3128.5 1387.5Q3144 1375 3144 1353Q3144 1334 3133.5 1321.0Q3123 1308 3101 1301L3051 1287Q3016 1277 3004.0 1259.5Q2992 1242 2995 1201L3070 184Q3072 149 3084.5 135.0Q3097 121 3127 112L3176 99Q3198 92 3207.5 80.0Q3217 68 3217 50Q3217 28 3202.0 14.0Q3187 0 3155 0H2674Q2642 0 2626.5 13.0Q2611 26 2611 47Q2611 65 2620.5 78.0Q2630 91 2655 99L2705 112Q2740 123 2752.5 138.0Q2765 153 2763 184L2680 1231L2775 1237L2348 137Q2329 88 2309.5 73.5Q2290 59 2263 59Q2244 59 2228.0 64.0Q2212 69 2198.0 86.5Q2184 104 2169 142L1736 1207L1827 1240L1740 213Q1737 170 1758.0 148.0Q1779 126 1817 110L1865 93Q1882 86 1891.0 76.0Q1900 66 1900 49Q1900 27 1884.5 13.5Q1869 0 1837 0H1521Q1489 0 1474.0 13.0Q1459 26 1459 47Q1459 69 1472.0 80.5Q1485 92 1506 101L1546 114Q1580 126 1600.0 148.5Q1620 171 1623 213L1707 1185Q1710 1231 1696.5 1254.5Q1683 1278 1648 1287L1600 1300Q1577 1307 1566.0 1319.5Q1555 1332 1555 1352Q1555 1400 1619 1400H1902Q1946 1400 1973.0 1382.5Q2000 1365 2021 1311Z" fill="#d4af6a"/></g>
</svg>
